<svg xmlns="http://www.w3.org/2000/svg" viewBox="0 0 363 47.2">
  <path d="M35 12.13a16.06 16.06 0 0 1-2.43 9.07 12.56 12.56 0 0 1-6.5 5.07l5.26 20.93h-10.8l-3.93-19h-3.47l-3.26 19H0L8.2 0h13.87q6.25 0 9.6 3T35 12.13Zm-10.2 1.34c0-1.82-.49-3.09-1.47-3.8A5.52 5.52 0 0 0 20 8.6h-3.47L14.4 20.93h3.33a7.19 7.19 0 0 0 5-1.86 7.17 7.17 0 0 0 2.07-5.6ZM46.07 47.2H35.73L43.93 0h10.34Zm45.6-28.8a44.39 44.39 0 0 1-1.2 10.13 28.08 28.08 0 0 1-3.94 9.27 20.62 20.62 0 0 1-18.26 9.4H54.6L62.8 0h12.47a19.35 19.35 0 0 1 7.53 1.33 13 13 0 0 1 5.1 3.77 15.46 15.46 0 0 1 2.87 5.83 29.19 29.19 0 0 1 .9 7.47Zm-10.47.85a21.33 21.33 0 0 0-.37-4.12 9.64 9.64 0 0 0-1.2-3.28 6.35 6.35 0 0 0-2.13-2.18 6 6 0 0 0-3.17-.8h-2.86L66.4 38.33h3a8 8 0 0 0 5.13-1.74 14.4 14.4 0 0 0 3.7-4.48A22.89 22.89 0 0 0 80.47 26a31.65 31.65 0 0 0 .73-6.75ZM122.2 9h-12.33l-1.74 9.8h11.54l-1.47 8.4h-11.47L104.87 38h13.46l-1.6 9.2H93.47l8.2-47.2h22.06Zm51.73 38.2H163l-.2-32.27h-.2L151.2 47.2H140L139.6 0h10.27l-.8 33.47h.33L160.53 0h9.94l-.27 33.47h.2L181.2 0h10Zm24.2 0H187.8L196 0h10.33Zm38.2-38.47h-8.66l-6.74 38.47H210.8l6.73-38.47h-8.66L210.4 0h27.47Zm29.4 38.47h-10.2L259 27.27h-11.4l-3.47 19.93h-10.2l8.2-47.2h10.14l-3.14 18.13h11.4L263.67 0h10.26ZM315.93 9H303.6l-1.73 9.8h11.53l-1.47 8.4h-11.46L298.6 38h13.47l-1.6 9.2H287.2L295.4 0h22.07Zm23.6 38.2h-23l8.2-47.2H335l-6.53 37.73h12.73Zm15.27 0h-10.33l8.2-47.2H363Z" style="fill:#ffffff"/>
</svg>