
<svg class="full-logo" xmlns="http://www.w3.org/2000/svg" viewBox="0 0 412 241.17">
  <path fill="#6d6e71" d="M133 133.06H93a26.53 26.53 0 0 0-26.5-26.5v-40a66.58 66.58 0 0 1 66.5 66.5Zm26.5 66.5a66.57 66.57 0 0 1-66.5-66.5h40a26.53 26.53 0 0 0 26.5 26.5Zm159.5-66.5h-40a26.53 26.53 0 0 0-26.5-26.5v-40a66.58 66.58 0 0 1 66.5 66.5Zm26.5 66.5a66.57 66.57 0 0 1-66.5-66.5h40a26.53 26.53 0 0 0 26.5 26.5Zm0 0v-40a26.53 26.53 0 0 0 26.5-26.5h40a66.57 66.57 0 0 1-66.5 66.5ZM40 133.06H0a66.58 66.58 0 0 1 66.5-66.5v40a26.53 26.53 0 0 0-26.5 26.5Z"/>
  <path fill="#27aae1" d="M252.5 199.56a66.57 66.57 0 0 1-66.5-66.5h40a26.5 26.5 0 0 0 53 0 66.5 66.5 0 0 1 133 0h-40a26.5 26.5 0 0 0-53 0 66.57 66.57 0 0 1-66.5 66.5Z"/>
  <path fill="#27aae1" d="M66.5 199.56A66.57 66.57 0 0 1 0 133.06h40a26.5 26.5 0 0 0 53 0 66.5 66.5 0 0 1 133 0h-40a26.5 26.5 0 0 0-53 0 66.57 66.57 0 0 1-66.5 66.5Z"/>
  <path fill="#6d6e71" d="M159.5 199.56v-40a26.53 26.53 0 0 0 26.5-26.5 66.58 66.58 0 0 1 66.5-66.5v40a26.53 26.53 0 0 0-26.5 26.5 66.57 66.57 0 0 1-66.5 66.5Z"/>
  <path fill="#009ada" d="M52.93 12.15a16.09 16.09 0 0 1-2.43 9.08A12.53 12.53 0 0 1 44 26.3l5.27 21H38.45l-3.94-19H31l-3.27 19h-9.85L26.09 0H40q6.27 0 9.61 3t3.32 9.15Zm-10.21 1.34q0-2.74-1.47-3.81a5.55 5.55 0 0 0-3.34-1.07h-3.47L32.3 21h3.34a7.19 7.19 0 0 0 5-1.87 7.15 7.15 0 0 0 2.08-5.64ZM64 47.27H53.67L61.88 0h10.35Zm45.68-28.84a44.41 44.41 0 0 1-1.2 10.14 28.34 28.34 0 0 1-3.94 9.28 21.71 21.71 0 0 1-7.21 6.78 21.49 21.49 0 0 1-11.08 2.64H72.56L80.77 0h12.49a19.22 19.22 0 0 1 7.54 1.34 12.89 12.89 0 0 1 5.11 3.77 15.44 15.44 0 0 1 2.87 5.89 29.21 29.21 0 0 1 .9 7.43Zm-10.48.84a21.4 21.4 0 0 0-.37-4.12 9.78 9.78 0 0 0-1.2-3.29 6.44 6.44 0 0 0-2.14-2.17 5.86 5.86 0 0 0-3.17-.81h-2.87l-5.07 29.51h3a8.05 8.05 0 0 0 5.14-1.74 14.51 14.51 0 0 0 3.71-4.5A22.87 22.87 0 0 0 98.46 26a31.79 31.79 0 0 0 .74-6.73ZM140.26 9h-12.35l-1.74 9.82h11.55l-1.47 8.41h-11.48l-1.87 10.83h13.49l-1.61 9.21h-23.3L119.69 0h22.1Zm51.8 38.27h-10.94l-.2-32.27h-.21L169.3 47.27h-11.22L157.68 0H168l-.8 33.52h.34L178.64 0h10l-.26 33.52h.2L199.34 0h10Zm24.24 0H206L214.16 0h10.35Zm38.25-38.52h-8.67l-6.75 38.52H229l6.75-38.52h-8.68L228.58 0h27.51ZM284 47.27h-10.22l3.47-20h-11.41l-3.47 20h-10.22L260.36 0h10.15l-3.14 18.16h11.42L281.93 0h10.28ZM334.27 9h-12.35l-1.74 9.82h11.55l-1.47 8.41h-11.48l-1.87 10.82h13.49l-1.61 9.21h-23.3L313.71 0h22.09Zm23.63 38.27h-23L343.08 0h10.28l-6.54 37.79h12.75Zm15.29 0h-10.35L371.05 0h10.35Z"/>
  <path fill="#787a7c" d="M29.77 235.11a6 6 0 0 1-.51 2.63 5.21 5.21 0 0 1-1.32 1.71 4.93 4.93 0 0 1-1.8.94 7.41 7.41 0 0 1-1.95.28H18.3V220.8h5.27a9 9 0 0 1 1.86.21 5.18 5.18 0 0 1 1.79.76 4.35 4.35 0 0 1 1.35 1.52 5.22 5.22 0 0 1 .53 2.51 4.89 4.89 0 0 1-.78 2.92 4.32 4.32 0 0 1-1.83 1.48v.06a4 4 0 0 1 1.14.48 3.78 3.78 0 0 1 1.05.93 5.34 5.34 0 0 1 .79 1.46 6 6 0 0 1 .3 1.98Zm-3.7-8.78a3.08 3.08 0 0 0-.24-1.28 2.4 2.4 0 0 0-.61-.84 2.25 2.25 0 0 0-.88-.46 3.94 3.94 0 0 0-1-.14h-1.87v5.53h1.9a3.41 3.41 0 0 0 1-.16 2.24 2.24 0 0 0 .86-.49 2.35 2.35 0 0 0 .61-.87 3.1 3.1 0 0 0 .23-1.29Zm.48 8.5a3.41 3.41 0 0 0-.28-1.47 2.83 2.83 0 0 0-.73-1 2.62 2.62 0 0 0-1-.55 3.61 3.61 0 0 0-1.06-.17h-2v6.2h2.12a3.49 3.49 0 0 0 1.14-.18 2.56 2.56 0 0 0 .94-.56 2.75 2.75 0 0 0 .64-.94 3.43 3.43 0 0 0 .23-1.33Zm6.31 5.84V220.8h3.37v19.87Zm16.14 0L43.72 231h-.09v9.65h-3.36V220.8h3.36v8.62h.09l5.05-8.62h3.79l-5.84 9.2 6.2 10.72Zm6.14 0V220.8H64v3h-5.64v5.27h5.25v2.75h-5.25v5.87h6v3Zm31.33 0 .06-15.27h-.08l-4 15.27h-2.63l-3.9-15.27h-.08l.06 15.27h-3.06V220.8h4.52l3.81 14.54h.11L85 220.8h4.75v19.87Zm15.1-16.02a3.43 3.43 0 0 0-2.75-1.32 2.92 2.92 0 0 0-.93.15 2.41 2.41 0 0 0-.81.49 2.33 2.33 0 0 0-.58.87 3.48 3.48 0 0 0-.21 1.27 2.49 2.49 0 0 0 .76 1.95 9.26 9.26 0 0 0 2 1.3 16.29 16.29 0 0 1 1.49.84 6.8 6.8 0 0 1 1.37 1.15 5.52 5.52 0 0 1 1 1.6 5.45 5.45 0 0 1 .4 2.19 6.71 6.71 0 0 1-.47 2.58 5.88 5.88 0 0 1-1.23 1.9 5.15 5.15 0 0 1-1.81 1.16 6.16 6.16 0 0 1-2.19.39 7.26 7.26 0 0 1-3.06-.64 6.53 6.53 0 0 1-2.24-1.63l1.82-2.47a4.71 4.71 0 0 0 1.56 1.24 4.31 4.31 0 0 0 1.87.44 2.32 2.32 0 0 0 1.76-.73 2.79 2.79 0 0 0 .7-2 2.62 2.62 0 0 0-.84-2.05 9.36 9.36 0 0 0-2.13-1.4 16 16 0 0 1-1.53-.87 5.71 5.71 0 0 1-1.26-1.14 4.93 4.93 0 0 1-.87-1.54 6.1 6.1 0 0 1-.32-2.12 6.46 6.46 0 0 1 .49-2.65 5.26 5.26 0 0 1 1.29-1.84 5 5 0 0 1 1.81-1.08 6.26 6.26 0 0 1 2-.35 7 7 0 0 1 2.7.49 5.23 5.23 0 0 1 2 1.44Zm9.17 9.7v-2.46h4.83v2.46Zm21.46 6.32-3.08-8.48h-1.88v8.48H124V220.8h5.67a7.46 7.46 0 0 1 2.27.33 4.38 4.38 0 0 1 1.78 1 4.81 4.81 0 0 1 1.17 1.77 7 7 0 0 1 .42 2.55 6.24 6.24 0 0 1-.3 2 5.45 5.45 0 0 1-.74 1.51 4.08 4.08 0 0 1-1 1 3.34 3.34 0 0 1-1.08.52l3.57 9.15Zm-.22-14a4 4 0 0 0-.25-1.49 2.34 2.34 0 0 0-1.58-1.4 3.85 3.85 0 0 0-1-.14h-1.9v6.12h1.9a2.79 2.79 0 0 0 2-.78 3.07 3.07 0 0 0 .85-2.34Zm6.39 14V220.8h3.37v19.87Zm20.18-9.91c0 3.15-.66 5.58-2 7.31a6.87 6.87 0 0 1-5.82 2.6h-5V220.8h5a6.81 6.81 0 0 1 5.8 2.63q2.02 2.63 2.02 7.33Zm-3.37 0a13.31 13.31 0 0 0-.32-3.08 6.69 6.69 0 0 0-.92-2.19 4 4 0 0 0-1.4-1.31 3.79 3.79 0 0 0-1.77-.43h-1.59v14h1.59a3.68 3.68 0 0 0 1.77-.43 4 4 0 0 0 1.4-1.31 6.67 6.67 0 0 0 .92-2.17 13.1 13.1 0 0 0 .32-3.08Zm6.56 9.91V220.8h8.9v3H165v5.27h5.25v2.75H165v5.87h5.95v3Zm22-17v17h-3.31v-17h-3.73v-2.87h10.77v2.87Zm18.8 7.04A17.16 17.16 0 0 1 202 235a10.19 10.19 0 0 1-1.41 3.29 6.64 6.64 0 0 1-2.26 2.13 6.28 6.28 0 0 1-6 0 6.7 6.7 0 0 1-2.25-2.13 10.41 10.41 0 0 1-1.41-3.29 17.18 17.18 0 0 1-.49-4.28 18.13 18.13 0 0 1 .47-4.27 10.33 10.33 0 0 1 1.41-3.28 6.52 6.52 0 0 1 2.26-2.12 6.45 6.45 0 0 1 6 0 6.61 6.61 0 0 1 2.26 2.12 10.33 10.33 0 0 1 1.41 3.28 17.08 17.08 0 0 1 .55 4.26Zm-3.48 0a16.11 16.11 0 0 0-.24-2.85 8.92 8.92 0 0 0-.7-2.3A4.4 4.4 0 0 0 197 224a2.57 2.57 0 0 0-3.2 0 4.28 4.28 0 0 0-1.15 1.53 8.55 8.55 0 0 0-.69 2.3 17.17 17.17 0 0 0-.22 2.85 17 17 0 0 0 .22 2.84 8.94 8.94 0 0 0 .69 2.32 4.32 4.32 0 0 0 1.15 1.54 2.43 2.43 0 0 0 1.61.56 2.46 2.46 0 0 0 1.62-.56 4.3 4.3 0 0 0 1.14-1.54 8.94 8.94 0 0 0 .69-2.32 16.93 16.93 0 0 0 .2-2.81Zm16.38-7.04v17h-3.31v-17h-3.73v-2.87h10.77v2.87Zm14.98 17v-8.81h-5.95v8.81h-3.34V220.8h3.34v8.06h5.95v-8.06h3.34v19.87Zm7.38 0V220.8h8.89v3H241v5.27h5.24v2.75H241v5.87h6v3Zm25.92 0-3.08-8.48h-1.88v8.48h-3.26V220.8h5.67a7.46 7.46 0 0 1 2.27.33 4.38 4.38 0 0 1 1.78 1 4.81 4.81 0 0 1 1.17 1.77 7 7 0 0 1 .42 2.55 6.24 6.24 0 0 1-.3 2 5.45 5.45 0 0 1-.74 1.51 4.08 4.08 0 0 1-1 1 3.34 3.34 0 0 1-1.08.52l3.57 9.15Zm-.22-14a4 4 0 0 0-.25-1.49 2.4 2.4 0 0 0-.66-.92 2.32 2.32 0 0 0-.92-.48 3.83 3.83 0 0 0-1-.14h-1.91v6.12h1.91a2.78 2.78 0 0 0 2-.78 3.07 3.07 0 0 0 .83-2.34Zm6.39 14V220.8h3.37v19.87Zm14.59 0h-4.26l-4.86-19.87h3.76l3.31 15.94h.09l3.31-15.94h3.59Zm7.04 0V220.8h8.9v3h-5.67v5.27H300v2.75h-5.25v5.87h5.95v3Zm20.48 0-3.09-8.48H307v8.48h-3.25V220.8h5.66a7.52 7.52 0 0 1 2.28.33 4.44 4.44 0 0 1 1.78 1 4.91 4.91 0 0 1 1.16 1.77 7 7 0 0 1 .42 2.55 6.54 6.54 0 0 1-.29 2A5.75 5.75 0 0 1 314 230a4 4 0 0 1-1 1 3.55 3.55 0 0 1-1.08.52l3.56 9.15Zm-.23-14a3.8 3.8 0 0 0-.25-1.49 2.4 2.4 0 0 0-.66-.92 2.35 2.35 0 0 0-.91-.48 4 4 0 0 0-1-.14H307v6.12h1.91a2.78 2.78 0 0 0 2-.78 3 3 0 0 0 .84-2.34Zm10.75 7.68v-2.46h4.83v2.46Zm23.57-8.3a6.33 6.33 0 0 1-.24 1.78 7.94 7.94 0 0 1-.66 1.6 12.52 12.52 0 0 1-1 1.52l-1.13 1.52-4.1 5.25h6.85v2.95h-10.69v-3.06l5.75-7.27a14.34 14.34 0 0 0 1.35-2.14 4.54 4.54 0 0 0 .5-2 3.52 3.52 0 0 0-.53-2 1.82 1.82 0 0 0-1.63-.81 2.06 2.06 0 0 0-1.62.73 4 4 0 0 0-.85 2.1l-3.17-.31a6.41 6.41 0 0 1 1.91-4.09 5.59 5.59 0 0 1 3.87-1.38 5.85 5.85 0 0 1 2.29.42 4.82 4.82 0 0 1 1.68 1.18 5.29 5.29 0 0 1 1.06 1.8 6.79 6.79 0 0 1 .36 2.21Zm14.7 4.69a27.08 27.08 0 0 1-.24 3.53 12.69 12.69 0 0 1-.89 3.34 6.63 6.63 0 0 1-1.84 2.48 4.61 4.61 0 0 1-3 1 4.54 4.54 0 0 1-3-1 6.74 6.74 0 0 1-1.84-2.48 12 12 0 0 1-.91-3.34 26.15 26.15 0 0 1 0-7.07 12 12 0 0 1 .91-3.34 6.74 6.74 0 0 1 1.84-2.48 4.54 4.54 0 0 1 3-1 4.61 4.61 0 0 1 3 1 6.63 6.63 0 0 1 1.84 2.48 12.69 12.69 0 0 1 .89 3.34 27.11 27.11 0 0 1 .24 3.54Zm-3.39 0c0-.68 0-1.44-.09-2.29a13.47 13.47 0 0 0-.35-2.39 6.08 6.08 0 0 0-.78-1.88 1.64 1.64 0 0 0-2.78 0 5.85 5.85 0 0 0-.79 1.88 14.46 14.46 0 0 0-.35 2.39c-.05.85-.08 1.61-.08 2.29s0 1.43.08 2.28a14.74 14.74 0 0 0 .35 2.4 5.58 5.58 0 0 0 .79 1.88 1.65 1.65 0 0 0 2.78 0 5.78 5.78 0 0 0 .78-1.88 13.72 13.72 0 0 0 .35-2.4q.09-1.28.09-2.28Zm16.75-4.69a6.33 6.33 0 0 1-.24 1.78 7.94 7.94 0 0 1-.66 1.6 12.52 12.52 0 0 1-1 1.52c-.36.49-.74 1-1.14 1.52l-4.09 5.25h6.84v2.95h-10.68v-3.06l5.75-7.27a13.46 13.46 0 0 0 1.34-2.14 4.56 4.56 0 0 0 .51-2 3.6 3.6 0 0 0-.53-2 1.82 1.82 0 0 0-1.63-.81 2.07 2.07 0 0 0-1.63.73 3.91 3.91 0 0 0-.84 2.1l-3.17-.31a6.36 6.36 0 0 1 1.91-4.09 5.59 5.59 0 0 1 3.87-1.38 5.88 5.88 0 0 1 2.29.42 4.82 4.82 0 0 1 1.68 1.18 5.12 5.12 0 0 1 1 1.8 6.79 6.79 0 0 1 .42 2.21Zm14.02 0a6.33 6.33 0 0 1-.24 1.78 7.36 7.36 0 0 1-.65 1.6 13.87 13.87 0 0 1-1 1.52l-1.14 1.52-4.09 5.25h6.84v2.95H377.2v-3.06l5.76-7.27a14.22 14.22 0 0 0 1.34-2.14 4.56 4.56 0 0 0 .51-2 3.52 3.52 0 0 0-.54-2 1.79 1.79 0 0 0-1.62-.81 2.07 2.07 0 0 0-1.63.73 3.91 3.91 0 0 0-.84 2.1l-3.17-.31a6.36 6.36 0 0 1 1.91-4.09 5.56 5.56 0 0 1 3.87-1.38 5.8 5.8 0 0 1 2.28.42 4.77 4.77 0 0 1 1.69 1.18 5.27 5.27 0 0 1 1.05 1.8 6.79 6.79 0 0 1 .36 2.21Z"/>
  <path fill="#009ada" d="M66.5 185.78c-3.42 0-5.86-2.91-8-5.47-1.2-1.44-2.71-3.23-3.7-3.5s-3.27.5-5.19 1.19c-3.09 1.12-6.59 2.38-9.46.72s-3.55-5.37-4.13-8.64c-.33-1.88-.75-4.23-1.52-5s-3.11-1.18-5-1.52c-3.26-.57-7-1.23-8.64-4.13s-.39-6.36.73-9.45c.69-1.92 1.47-4.1 1.18-5.19a14.36 14.36 0 0 0-2.11-3.9c-1.47-2.19-3.14-4.68-3.14-7.83h5c0 1.63 1.11 3.29 2.29 5.05a17.92 17.92 0 0 1 2.79 5.39c.7 2.61-.32 5.44-1.31 8.18-.67 1.85-1.59 4.4-1.1 5.25s3.21 1.36 5.18 1.71c2.84.5 5.78 1 7.67 2.91s2.4 4.82 2.9 7.66c.35 2 .83 4.67 1.72 5.19s3.39-.43 5.25-1.1c2.74-1 5.57-2 8.18-1.32s4.41 2.93 6.24 5.11c1.31 1.56 3.1 3.69 4.19 3.69s2.88-2.13 4.19-3.69c1.83-2.18 3.72-4.43 6.24-5.11s5.44.33 8.18 1.32c1.86.67 4.4 1.59 5.25 1.1s1.37-3.22 1.72-5.19c.5-2.84 1-5.78 2.9-7.66s4.83-2.41 7.67-2.91c2-.35 4.67-.83 5.18-1.71s-.43-3.4-1.1-5.25c-1-2.74-2-5.57-1.31-8.18s2.93-4.42 5.11-6.25c1.56-1.31 3.69-3.1 3.69-4.19s-1.34-3.08-2.52-4.78c-1.87-2.67-4-5.7-3.14-8.86s4.3-4.87 7.32-6.28c1.72-.8 3.87-1.8 4.4-2.72s.35-3.35.19-5.26c-.29-3.29-.6-7 1.75-9.37s6.08-2 9.37-1.76c1.92.16 4.31.37 5.27-.19s1.92-2.67 2.72-4.39c1.41-3 3-6.45 6.27-7.32s6.2 1.27 8.87 3.13c1.69 1.19 3.61 2.52 4.78 2.52s3.09-1.33 4.78-2.52c2.67-1.86 5.71-4 8.87-3.13s4.86 4.3 6.27 7.32c.8 1.72 1.8 3.86 2.72 4.39s3.35.35 5.27.19c3.29-.28 7-.6 9.37 1.76s2 6.07 1.8 8.8l-5-.41c.11-1.35.34-4.16-.36-4.86s-3.42-.48-5.41-.31c-2.89.25-5.87.5-8.19-.84s-3.54-4-4.75-6.61c-.85-1.83-2-4.33-3-4.6s-3.2 1.35-4.71 2.41c-2.41 1.68-4.9 3.41-7.64 3.41s-5.23-1.73-7.64-3.41c-1.51-1.06-3.8-2.65-4.71-2.41s-2.19 2.77-3 4.6c-1.21 2.6-2.46 5.29-4.75 6.61s-5.3 1.09-8.19.84c-2-.17-4.7-.4-5.41.31s-.48 3.43-.31 5.41c.24 2.89.5 5.87-.84 8.2s-4 3.53-6.61 4.75c-1.83.85-4.33 2-4.61 3s1.36 3.2 2.41 4.71c1.68 2.41 3.42 4.9 3.42 7.64 0 3.42-2.91 5.87-5.48 8-1.44 1.21-3.23 2.71-3.49 3.71s.49 3.27 1.18 5.19c1.12 3.09 2.39 6.59.73 9.45s-5.38 3.56-8.64 4.13c-1.89.34-4.23.75-5 1.52s-1.19 3.12-1.52 5c-.58 3.27-1.23 7-4.13 8.65s-6.37.39-9.46-.73c-1.92-.69-4.09-1.48-5.19-1.19s-2.5 2.06-3.7 3.5c-2.24 2.61-4.68 5.52-8.1 5.52Zm186 0c-3.42 0-5.86-2.91-8-5.47-1.2-1.44-2.71-3.23-3.7-3.5s-3.27.5-5.19 1.19c-3.09 1.12-6.59 2.38-9.46.72s-3.55-5.37-4.13-8.64c-.33-1.88-.75-4.23-1.52-5s-3.12-1.18-5-1.52l-.6-.1.89-4.92.58.1c2.84.5 5.78 1 7.67 2.91s2.4 4.82 2.9 7.66c.35 2 .83 4.67 1.72 5.19s3.39-.43 5.25-1.1c2.74-1 5.57-2 8.18-1.32s4.41 2.93 6.24 5.11c1.31 1.56 3.1 3.69 4.19 3.69s2.88-2.13 4.19-3.69c1.83-2.18 3.72-4.43 6.24-5.11s5.44.33 8.18 1.32c1.86.67 4.4 1.59 5.25 1.1s1.37-3.22 1.72-5.19c.5-2.84 1-5.78 2.9-7.66s4.83-2.41 7.67-2.91c2-.35 4.67-.83 5.18-1.71s-.43-3.4-1.1-5.25c-1-2.74-2-5.57-1.31-8.18s2.93-4.42 5.11-6.25c1.56-1.31 3.69-3.1 3.69-4.19s-1.34-3.08-2.52-4.78c-1.87-2.67-4-5.7-3.14-8.86s4.3-4.87 7.32-6.28c1.72-.8 3.87-1.8 4.4-2.72s.35-3.35.19-5.26c-.29-3.29-.6-7 1.75-9.37s6.08-2 9.37-1.76c1.92.16 4.31.37 5.27-.19s1.92-2.67 2.72-4.39c1.41-3 3-6.45 6.27-7.32s6.2 1.27 8.87 3.13c1.69 1.19 3.61 2.52 4.78 2.52s3.09-1.33 4.78-2.52c2.67-1.86 5.71-4 8.87-3.13s4.86 4.3 6.27 7.32c.8 1.72 1.8 3.86 2.72 4.39s3.35.35 5.27.19c3.29-.28 7-.6 9.37 1.76s2 6.08 1.75 9.37c-.16 1.91-.36 4.3.19 5.26s2.68 1.92 4.4 2.72c3 1.41 6.44 3 7.32 6.28.76 2.86-.1 6.07-.92 9.18a23.46 23.46 0 0 0-1 5.26h-5a26.71 26.71 0 0 1 1.18-6.54c.66-2.48 1.34-5 .93-6.61-.28-1-2.78-2.18-4.61-3-2.6-1.22-5.29-2.47-6.61-4.75s-1.08-5.31-.84-8.2c.17-2 .4-4.7-.31-5.41s-3.42-.48-5.41-.31c-2.89.25-5.87.5-8.19-.84s-3.54-4-4.75-6.61c-.85-1.83-2-4.33-3-4.6s-3.2 1.35-4.71 2.41c-2.41 1.68-4.9 3.41-7.64 3.41s-5.23-1.73-7.64-3.41c-1.51-1.06-3.8-2.65-4.71-2.41s-2.19 2.77-3 4.6c-1.21 2.6-2.46 5.29-4.75 6.61s-5.3 1.09-8.19.84c-2-.17-4.7-.4-5.41.31s-.48 3.43-.31 5.41c.24 2.89.5 5.87-.84 8.2s-4 3.53-6.61 4.75c-1.83.85-4.33 2-4.61 3s1.36 3.2 2.41 4.71c1.68 2.41 3.42 4.9 3.42 7.64 0 3.42-2.91 5.87-5.48 8-1.44 1.21-3.23 2.71-3.49 3.71s.49 3.27 1.18 5.19c1.12 3.09 2.39 6.59.73 9.45s-5.38 3.56-8.64 4.13c-1.89.34-4.23.75-5 1.52s-1.19 3.12-1.52 5c-.58 3.27-1.23 7-4.13 8.65s-6.37.39-9.46-.73c-1.92-.69-4.09-1.48-5.19-1.19s-2.5 2.06-3.7 3.5c-2.28 2.58-4.72 5.49-8.14 5.49Z"/>
  <path fill="#6d6e71" d="M159.5 199.56v-40a26.53 26.53 0 0 0 26.5-26.5 66.58 66.58 0 0 1 66.5-66.5v40a26.53 26.53 0 0 0-26.5 26.5 66.57 66.57 0 0 1-66.5 66.5Z"/>
  <path fill="#fff200" d="M345.5 179.94c-1.37 0-2.76-.06-4.13-.17a2.5 2.5 0 0 1 .42-5 44.38 44.38 0 0 0 7.56 0 2.5 2.5 0 1 1 .43 5c-1.41.11-2.85.17-4.28.17Zm-188.65-.08h-.14a49.61 49.61 0 0 1-8.33-1.19 2.5 2.5 0 0 1 1.13-4.87 43.63 43.63 0 0 0 7.48 1.07 2.5 2.5 0 0 1-.14 5Zm14.85-1.54a2.5 2.5 0 0 1-.65-4.91 44.94 44.94 0 0 0 7.09-2.6 2.5 2.5 0 0 1 2.12 4.52 48.57 48.57 0 0 1-7.9 2.9 2.5 2.5 0 0 1-.66.09Zm155.39-2.17a2.47 2.47 0 0 1-1-.2 49 49 0 0 1-7.41-4 2.5 2.5 0 1 1 2.73-4.19 44.59 44.59 0 0 0 6.66 3.59 2.5 2.5 0 0 1-1 4.79Zm36.91-.06a2.5 2.5 0 0 1-1-4.79 43 43 0 0 0 6.64-3.6 2.5 2.5 0 0 1 2.76 4.18 50.4 50.4 0 0 1-7.4 4 2.55 2.55 0 0 1-1 .21Zm-228.87-3.04a2.53 2.53 0 0 1-1.31-.37 50.09 50.09 0 0 1-6.76-5 2.5 2.5 0 1 1 3.31-3.75 44.43 44.43 0 0 0 6.08 4.5 2.5 2.5 0 0 1-1.32 4.63Zm56.4-5.9a2.5 2.5 0 0 1-1.72-4.31 44.87 44.87 0 0 0 5-5.66 2.5 2.5 0 1 1 4 3 49.11 49.11 0 0 1-5.58 6.3 2.48 2.48 0 0 1-1.7.67Zm190.52-4.97a2.49 2.49 0 0 1-2-4 44.69 44.69 0 0 0 4.15-6.32 2.5 2.5 0 1 1 4.4 2.38 49.53 49.53 0 0 1-4.62 7 2.5 2.5 0 0 1-1.93.94ZM203.7 147.91a2.69 2.69 0 0 1-.78-.12 2.49 2.49 0 0 1-1.59-3.15 44.19 44.19 0 0 0 1.72-7.36 2.5 2.5 0 0 1 4.95.72 49.84 49.84 0 0 1-1.92 8.2 2.5 2.5 0 0 1-2.38 1.71Zm187.62-5.48a2 2 0 0 1-.42 0 2.49 2.49 0 0 1-2-2.88 23.36 23.36 0 0 0 .59-5.41c0-1.38 5-1.38 5 0a28 28 0 0 1-.66 6.26 2.51 2.51 0 0 1-2.51 2.03ZM20 131.88h-.09a2.49 2.49 0 0 1-2.41-2.58 48.58 48.58 0 0 1 1-8.35 2.5 2.5 0 0 1 4.9 1 44.91 44.91 0 0 0-.9 7.51 2.5 2.5 0 0 1-2.5 2.42Zm186.73-6.67a2.18 2.18 0 0 1-.44 0 2.49 2.49 0 0 1-2-2.9 47.61 47.61 0 0 1 2.19-8.13 2.5 2.5 0 1 1 4.69 1.71 44 44 0 0 0-2 7.3 2.5 2.5 0 0 1-2.44 2.02ZM26.32 110a2.49 2.49 0 0 1-2.15-3.76A49 49 0 0 1 29 99.37a2.5 2.5 0 1 1 3.82 3.22 45 45 0 0 0-4.36 6.18 2.48 2.48 0 0 1-2.14 1.23Zm189.8-5.52a2.51 2.51 0 0 1-2-4.06 49.94 49.94 0 0 1 5.88-6.11 2.5 2.5 0 1 1 3.32 3.74 44.89 44.89 0 0 0-5.2 5.48 2.49 2.49 0 0 1-2 .95Zm68.31-4.85a2.47 2.47 0 0 1-1.72-.68 43.17 43.17 0 0 0-5.92-4.7 2.5 2.5 0 0 1 2.77-4.17 50.18 50.18 0 0 1 6.58 5.23 2.5 2.5 0 0 1-1.71 4.32Zm-191.2-4.24a2.49 2.49 0 0 1-1.44-.46 43.82 43.82 0 0 0-6.52-3.8 2.5 2.5 0 1 1 2.13-4.52 48 48 0 0 1 7.27 4.23 2.5 2.5 0 0 1-1.44 4.55Zm-50.97-1.64A2.5 2.5 0 0 1 41 89.12a48.63 48.63 0 0 1 7.54-3.76A2.5 2.5 0 1 1 50.32 90a44.38 44.38 0 0 0-6.76 3.37 2.49 2.49 0 0 1-1.3.38Zm191.96-3.08a2.5 2.5 0 0 1-1-4.8 49.06 49.06 0 0 1 8-2.63 2.5 2.5 0 0 1 1.14 4.87 43.4 43.4 0 0 0-7.18 2.36 2.46 2.46 0 0 1-.96.2Zm30.35-2.15a2.43 2.43 0 0 1-.65-.09 44.6 44.6 0 0 0-7.44-1.32 2.5 2.5 0 1 1 .44-5 49.29 49.29 0 0 1 8.29 1.47 2.5 2.5 0 0 1-.64 4.92ZM72 87.26h-.29a45.47 45.47 0 0 0-7.58-.26 2.5 2.5 0 0 1-.27-5 50.16 50.16 0 0 1 8.41.26 2.5 2.5 0 0 1-.29 5Z"/>
</svg>